<?xml version="1.0" encoding="UTF-8"?>
<svg xmlns="http://www.w3.org/2000/svg" width="1600" height="1024" viewBox="0 0 1600 1024">
  <defs>
    <linearGradient id="g1" x1="0" y1="0" x2="0" y2="1">
      <stop offset="0%" stop-color="#1677FF"/>
      <stop offset="100%" stop-color="#00D08A"/>
    </linearGradient>
  </defs>
  <g transform="translate(590,300) scale(1.2)">
    <rect x="0" y="0" rx="48" ry="48" width="420" height="420" fill="url(#g1)"/>
    <rect x="0" y="0" rx="32" ry="32" width="420" height="140" fill="#1677FF"/>
    <g fill="#FFFFFF">
      <rect x="32" y="150" width="85" height="85" rx="12"/>
      <rect x="160" y="150" width="85" height="85" rx="12"/>
      <rect x="288" y="150" width="85" height="85" rx="12"/>
      <rect x="32" y="280" width="85" height="85" rx="12"/>
      <rect x="160" y="280" width="85" height="85" rx="12"/>
      <rect x="288" y="280" width="85" height="85" rx="12"/>
    </g>
    <rect x="288" y="280" width="85" height="85" rx="12" fill="#86F2B0"/>
    <g transform="translate(0,-20)">
      <circle cx="300" cy="80" r="70" fill="#1677FF"/>
      <path d="M276 80 l24 24 l48 -54" fill="none" stroke="#FFFFFF" stroke-width="16" stroke-linecap="round" stroke-linejoin="round"/>
    </g>
  </g>
  
</svg>